G04 Layer: TopSilkLayer*
G04 EasyEDA v6.2.46, 2019-12-26T15:44:02--5:00*
G04 111d7bdae86b4e7985bcd74f00d2b945,ad3383c819c44bf79b2f5f1fb32db82d,10*
G04 Gerber Generator version 0.2*
G04 Scale: 100 percent, Rotated: No, Reflected: No *
G04 Dimensions in inches *
G04 leading zeros omitted , absolute positions ,2 integer and 4 decimal *
%FSLAX24Y24*%
%MOIN*%
G90*
G70D02*

%ADD10C,0.010000*%
%ADD30C,0.007874*%
%ADD31C,0.005910*%
%ADD32C,0.007870*%
%ADD33C,0.003940*%
%ADD34C,0.006000*%
%ADD35C,0.011811*%
%ADD36C,0.005984*%

%LPD*%
G54D10*
G01X511Y852D02*
G01X251Y852D01*
G01X511Y852D01*
G01X251Y852D01*
G01X251Y1173D01*
G01X1400Y1173D02*
G01X1400Y852D01*
G01X1140Y852D01*
G54D30*
G01X944Y1462D02*
G01X707Y1462D01*
G54D10*
G01X1730Y1719D02*
G01X2730Y1719D01*
G01X2730Y479D02*
G01X1730Y479D01*
G01X1718Y479D02*
G01X1718Y528D01*
G01X1728Y1665D02*
G01X1728Y1714D01*
G01X2731Y1665D02*
G01X2731Y1714D01*
G01X2731Y484D02*
G01X2731Y533D01*
G01X5409Y8440D02*
G01X4830Y8440D01*
G01X5409Y7759D02*
G01X4830Y7759D01*
G01X5409Y7759D02*
G01X5409Y8440D01*
G01X4600Y8440D02*
G01X4140Y8440D01*
G01X4590Y7759D02*
G01X4140Y7759D01*
G01X4140Y7759D02*
G01X4000Y7900D01*
G01X4000Y8300D01*
G01X4140Y8440D01*
G54D31*
G01X4769Y7950D02*
G01X4769Y8259D01*
G01X4669Y8159D01*
G01X4669Y8019D01*
G01X4769Y7919D01*
G01X4769Y8009D01*
G01X4719Y8190D02*
G01X4719Y7990D01*
G54D32*
G01X7031Y2847D02*
G01X7031Y2453D01*
G54D33*
G01X6637Y2551D02*
G01X6637Y2748D01*
G01X6342Y2748D02*
G01X6145Y2551D01*
G01X6342Y3044D02*
G01X6145Y3044D01*
G54D10*
G01X2854Y7478D02*
G01X4586Y7478D01*
G01X4586Y6041D01*
G01X2854Y6041D01*
G01X2854Y7478D01*
G54D30*
G01X3743Y2290D02*
G01X3980Y2290D01*
G01X3980Y2526D01*
G01X1696Y2290D02*
G01X1460Y2290D01*
G01X1460Y2526D01*
G01X1460Y4573D02*
G01X1460Y4809D01*
G01X1696Y4809D01*
G01X3743Y4809D02*
G01X3980Y4809D01*
G01X3980Y4573D01*
G01X1315Y6567D02*
G01X1315Y6133D01*
G01X684Y6133D01*
G01X684Y6567D01*
G01X1315Y6881D02*
G01X1315Y7315D01*
G01X921Y7315D01*
G01X684Y7315D01*
G01X684Y6881D01*
G01X2131Y5965D02*
G01X2564Y5965D01*
G01X2564Y5334D01*
G01X2131Y5334D01*
G01X1816Y5965D02*
G01X1383Y5965D01*
G01X1383Y5571D01*
G01X1383Y5334D01*
G01X1816Y5334D01*
G54D10*
G01X3650Y1300D02*
G01X7850Y1300D01*
G01X7850Y100D01*
G01X3650Y100D01*
G01X3650Y1300D01*
G01X4750Y1300D02*
G01X4750Y100D01*
G54D30*
G01X2115Y6567D02*
G01X2115Y6133D01*
G01X1484Y6133D01*
G01X1484Y6567D01*
G01X2115Y6881D02*
G01X2115Y7315D01*
G01X1721Y7315D01*
G01X1484Y7315D01*
G01X1484Y6881D01*
G54D10*
G01X2890Y9222D02*
G01X2890Y9340D01*
G01X2890Y8159D02*
G01X2890Y8277D01*
G01X1709Y8159D02*
G01X1709Y8277D01*
G01X1710Y8160D02*
G01X1710Y9341D01*
G01X2890Y8160D02*
G01X1709Y8160D01*
G01X2890Y8160D02*
G01X2890Y9341D01*
G01X2890Y9341D02*
G01X1709Y9341D01*
G54D34*
G01X4650Y6826D02*
G01X4650Y6576D01*
G01X4990Y6576D01*
G01X4990Y6786D01*
G01X4990Y6826D01*
G01X4990Y6976D02*
G01X4990Y7217D01*
G01X4650Y7217D01*
G01X4650Y7007D01*
G01X4650Y6976D01*
G01X2769Y6973D02*
G01X2769Y7223D01*
G01X2430Y7223D01*
G01X2430Y7013D01*
G01X2430Y6973D01*
G01X2430Y6823D02*
G01X2430Y6582D01*
G01X2769Y6582D01*
G01X2769Y6792D01*
G01X2769Y6823D01*
G01X4650Y3626D02*
G01X4650Y3376D01*
G01X4990Y3376D01*
G01X4990Y3586D01*
G01X4990Y3626D01*
G01X4990Y3776D02*
G01X4990Y4017D01*
G01X4650Y4017D01*
G01X4650Y3807D01*
G01X4650Y3776D01*
G01X3919Y8755D02*
G01X3919Y9005D01*
G01X3580Y9005D01*
G01X3580Y8796D01*
G01X3580Y8755D01*
G01X3580Y8605D02*
G01X3580Y8365D01*
G01X3919Y8365D01*
G01X3919Y8576D01*
G01X3919Y8605D01*
G01X1205Y8180D02*
G01X1455Y8180D01*
G01X1455Y8519D01*
G01X1246Y8519D01*
G01X1205Y8519D01*
G01X1055Y8519D02*
G01X815Y8519D01*
G01X815Y8180D01*
G01X1026Y8180D01*
G01X1055Y8180D01*
G01X4650Y5326D02*
G01X4650Y5076D01*
G01X4990Y5076D01*
G01X4990Y5286D01*
G01X4990Y5326D01*
G01X4990Y5476D02*
G01X4990Y5717D01*
G01X4650Y5717D01*
G01X4650Y5507D01*
G01X4650Y5476D01*
G01X5050Y3259D02*
G01X5050Y3009D01*
G01X5390Y3009D01*
G01X5390Y3219D01*
G01X5390Y3259D01*
G01X5390Y3409D02*
G01X5390Y3650D01*
G01X5050Y3650D01*
G01X5050Y3440D01*
G01X5050Y3409D01*
G01X4990Y6273D02*
G01X4990Y6523D01*
G01X4650Y6523D01*
G01X4650Y6313D01*
G01X4650Y6273D01*
G01X4650Y6123D02*
G01X4650Y5882D01*
G01X4990Y5882D01*
G01X4990Y6092D01*
G01X4990Y6123D01*
G01X1340Y5723D02*
G01X1340Y5973D01*
G01X1000Y5973D01*
G01X1000Y5763D01*
G01X1000Y5723D01*
G01X1000Y5573D02*
G01X1000Y5332D01*
G01X1340Y5332D01*
G01X1340Y5542D01*
G01X1340Y5573D01*
G01X3580Y7894D02*
G01X3580Y7644D01*
G01X3919Y7644D01*
G01X3919Y7853D01*
G01X3919Y7894D01*
G01X3919Y8044D02*
G01X3919Y8284D01*
G01X3580Y8284D01*
G01X3580Y8073D01*
G01X3580Y8044D01*
G01X4440Y5673D02*
G01X4440Y5923D01*
G01X4100Y5923D01*
G01X4100Y5713D01*
G01X4100Y5673D01*
G01X4100Y5523D02*
G01X4100Y5282D01*
G01X4440Y5282D01*
G01X4440Y5492D01*
G01X4440Y5523D01*
G01X1130Y8844D02*
G01X1130Y8594D01*
G01X1469Y8594D01*
G01X1469Y8803D01*
G01X1469Y8844D01*
G01X1469Y8994D02*
G01X1469Y9234D01*
G01X1130Y9234D01*
G01X1130Y9023D01*
G01X1130Y8994D01*
G01X5459Y4530D02*
G01X5709Y4530D01*
G01X5709Y4869D01*
G01X5500Y4869D01*
G01X5459Y4869D01*
G01X5309Y4869D02*
G01X5069Y4869D01*
G01X5069Y4530D01*
G01X5280Y4530D01*
G01X5309Y4530D01*
G01X1030Y2244D02*
G01X1030Y1994D01*
G01X1369Y1994D01*
G01X1369Y2203D01*
G01X1369Y2244D01*
G01X1369Y2394D02*
G01X1369Y2634D01*
G01X1030Y2634D01*
G01X1030Y2423D01*
G01X1030Y2394D01*
G01X3290Y5723D02*
G01X3290Y5973D01*
G01X2950Y5973D01*
G01X2950Y5763D01*
G01X2950Y5723D01*
G01X2950Y5573D02*
G01X2950Y5332D01*
G01X3290Y5332D01*
G01X3290Y5542D01*
G01X3290Y5573D01*
G01X4650Y4459D02*
G01X4650Y4209D01*
G01X4990Y4209D01*
G01X4990Y4419D01*
G01X4990Y4459D01*
G01X4990Y4609D02*
G01X4990Y4850D01*
G01X4650Y4850D01*
G01X4650Y4640D01*
G01X4650Y4609D01*
G01X4650Y2559D02*
G01X4650Y2309D01*
G01X4990Y2309D01*
G01X4990Y2519D01*
G01X4990Y2559D01*
G01X4990Y2709D02*
G01X4990Y2950D01*
G01X4650Y2950D01*
G01X4650Y2740D01*
G01X4650Y2709D01*
G01X1709Y2119D02*
G01X1459Y2119D01*
G01X1459Y1780D01*
G01X1669Y1780D01*
G01X1709Y1780D01*
G01X1859Y1780D02*
G01X2100Y1780D01*
G01X2100Y2119D01*
G01X1890Y2119D01*
G01X1859Y2119D01*
G01X5050Y2559D02*
G01X5050Y2309D01*
G01X5390Y2309D01*
G01X5390Y2519D01*
G01X5390Y2559D01*
G01X5390Y2709D02*
G01X5390Y2950D01*
G01X5050Y2950D01*
G01X5050Y2740D01*
G01X5050Y2709D01*
G54D30*
G01X3034Y1281D02*
G01X3034Y1714D01*
G01X3665Y1714D01*
G01X3665Y1281D01*
G01X3034Y966D02*
G01X3034Y533D01*
G01X3428Y533D01*
G01X3665Y533D01*
G01X3665Y966D01*
G54D34*
G01X3194Y519D02*
G01X2944Y519D01*
G01X2944Y180D01*
G01X3153Y180D01*
G01X3194Y180D01*
G01X3344Y180D02*
G01X3584Y180D01*
G01X3584Y519D01*
G01X3373Y519D01*
G01X3344Y519D01*
G54D36*
G01X4067Y1676D02*
G01X4053Y1705D01*
G01X4025Y1734D01*
G01X3994Y1750D01*
G01X3936Y1750D01*
G01X3907Y1734D01*
G01X3878Y1705D01*
G01X3865Y1676D01*
G01X3850Y1632D01*
G01X3850Y1559D01*
G01X3865Y1517D01*
G01X3878Y1488D01*
G01X3907Y1459D01*
G01X3936Y1444D01*
G01X3994Y1444D01*
G01X4025Y1459D01*
G01X4053Y1488D01*
G01X4067Y1517D01*
G01X4067Y1559D01*
G01X3994Y1559D02*
G01X4067Y1559D01*
G01X4163Y1750D02*
G01X4163Y1444D01*
G01X4163Y1750D02*
G01X4367Y1444D01*
G01X4367Y1750D02*
G01X4367Y1444D01*
G01X4463Y1750D02*
G01X4463Y1444D01*
G01X4463Y1750D02*
G01X4565Y1750D01*
G01X4609Y1734D01*
G01X4638Y1705D01*
G01X4653Y1676D01*
G01X4667Y1632D01*
G01X4667Y1559D01*
G01X4653Y1517D01*
G01X4638Y1488D01*
G01X4609Y1459D01*
G01X4565Y1444D01*
G01X4463Y1444D01*
G01X6750Y1744D02*
G01X6865Y1438D01*
G01X6982Y1744D02*
G01X6865Y1438D01*
G01X7296Y1671D02*
G01X7282Y1701D01*
G01X7253Y1730D01*
G01X7223Y1744D01*
G01X7165Y1744D01*
G01X7136Y1730D01*
G01X7107Y1701D01*
G01X7092Y1671D01*
G01X7078Y1628D01*
G01X7078Y1555D01*
G01X7092Y1511D01*
G01X7107Y1482D01*
G01X7136Y1453D01*
G01X7165Y1438D01*
G01X7223Y1438D01*
G01X7253Y1453D01*
G01X7282Y1482D01*
G01X7296Y1511D01*
G01X7611Y1671D02*
G01X7596Y1701D01*
G01X7567Y1730D01*
G01X7538Y1744D01*
G01X7480Y1744D01*
G01X7451Y1730D01*
G01X7421Y1701D01*
G01X7407Y1671D01*
G01X7392Y1628D01*
G01X7392Y1555D01*
G01X7407Y1511D01*
G01X7421Y1482D01*
G01X7451Y1453D01*
G01X7480Y1438D01*
G01X7538Y1438D01*
G01X7567Y1453D01*
G01X7596Y1482D01*
G01X7611Y1511D01*
G01X6000Y1686D02*
G01X6028Y1701D01*
G01X6073Y1744D01*
G01X6073Y1438D01*
G01X6342Y1701D02*
G01X6328Y1730D01*
G01X6284Y1744D01*
G01X6255Y1744D01*
G01X6211Y1730D01*
G01X6182Y1686D01*
G01X6169Y1613D01*
G01X6169Y1540D01*
G01X6182Y1482D01*
G01X6211Y1453D01*
G01X6255Y1438D01*
G01X6271Y1438D01*
G01X6313Y1453D01*
G01X6342Y1482D01*
G01X6357Y1526D01*
G01X6357Y1540D01*
G01X6342Y1584D01*
G01X6313Y1613D01*
G01X6271Y1628D01*
G01X6255Y1628D01*
G01X6211Y1613D01*
G01X6182Y1584D01*
G01X6169Y1540D01*
G01X5100Y1690D02*
G01X5128Y1705D01*
G01X5173Y1750D01*
G01X5173Y1444D01*
G01X5442Y1750D02*
G01X5298Y1750D01*
G01X5282Y1619D01*
G01X5298Y1632D01*
G01X5342Y1648D01*
G01X5384Y1648D01*
G01X5428Y1632D01*
G01X5457Y1603D01*
G01X5471Y1559D01*
G01X5471Y1530D01*
G01X5457Y1488D01*
G01X5428Y1459D01*
G01X5384Y1444D01*
G01X5342Y1444D01*
G01X5298Y1459D01*
G01X5282Y1473D01*
G01X5269Y1501D01*
G01X7025Y6900D02*
G01X6719Y6900D01*
G01X7025Y6696D02*
G01X6719Y6696D01*
G01X6878Y6900D02*
G01X6878Y6696D01*
G01X6923Y6600D02*
G01X6776Y6600D01*
G01X6734Y6586D01*
G01X6719Y6557D01*
G01X6719Y6513D01*
G01X6734Y6484D01*
G01X6776Y6440D01*
G01X6923Y6440D02*
G01X6719Y6440D01*
G01X6923Y6344D02*
G01X6719Y6344D01*
G01X6865Y6344D02*
G01X6907Y6301D01*
G01X6923Y6271D01*
G01X6923Y6228D01*
G01X6907Y6198D01*
G01X6865Y6184D01*
G01X6719Y6184D01*
G01X6865Y6184D02*
G01X6907Y6140D01*
G01X6923Y6111D01*
G01X6923Y6067D01*
G01X6907Y6038D01*
G01X6865Y6023D01*
G01X6719Y6023D01*
G01X7025Y5928D02*
G01X7009Y5913D01*
G01X7025Y5898D01*
G01X7038Y5913D01*
G01X7025Y5928D01*
G01X6923Y5913D02*
G01X6719Y5913D01*
G01X7025Y5628D02*
G01X6719Y5628D01*
G01X6878Y5628D02*
G01X6907Y5657D01*
G01X6923Y5686D01*
G01X6923Y5730D01*
G01X6907Y5759D01*
G01X6878Y5788D01*
G01X6834Y5803D01*
G01X6805Y5803D01*
G01X6763Y5788D01*
G01X6734Y5759D01*
G01X6719Y5730D01*
G01X6719Y5686D01*
G01X6734Y5657D01*
G01X6763Y5628D01*
G01X7025Y5532D02*
G01X7009Y5517D01*
G01X7025Y5503D01*
G01X7038Y5517D01*
G01X7025Y5532D01*
G01X6923Y5517D02*
G01X6719Y5517D01*
G01X7025Y5363D02*
G01X6776Y5363D01*
G01X6734Y5348D01*
G01X6719Y5319D01*
G01X6719Y5290D01*
G01X6923Y5407D02*
G01X6923Y5305D01*
G01X6923Y5180D02*
G01X6719Y5092D01*
G01X6923Y5005D02*
G01X6719Y5092D01*
G01X6661Y5121D01*
G01X6632Y5151D01*
G01X6617Y5180D01*
G01X6617Y5194D01*
G01X6776Y4880D02*
G01X6763Y4894D01*
G01X6776Y4909D01*
G01X6792Y4894D01*
G01X6776Y4880D01*
G01X6748Y4880D01*
G01X6719Y4909D01*
G01X7025Y4561D02*
G01X6719Y4561D01*
G01X6951Y4450D02*
G01X6965Y4450D01*
G01X6994Y4434D01*
G01X7009Y4421D01*
G01X7025Y4392D01*
G01X7025Y4334D01*
G01X7009Y4303D01*
G01X6994Y4290D01*
G01X6965Y4275D01*
G01X6936Y4275D01*
G01X6907Y4290D01*
G01X6865Y4319D01*
G01X6719Y4463D01*
G01X6719Y4261D01*
G01X6951Y3946D02*
G01X6980Y3961D01*
G01X7009Y3990D01*
G01X7025Y4019D01*
G01X7025Y4076D01*
G01X7009Y4107D01*
G01X6980Y4136D01*
G01X6951Y4150D01*
G01X6907Y4165D01*
G01X6834Y4165D01*
G01X6792Y4150D01*
G01X6763Y4136D01*
G01X6734Y4107D01*
G01X6719Y4076D01*
G01X6719Y4019D01*
G01X6734Y3990D01*
G01X6763Y3961D01*
G01X6792Y3946D01*
G01X7525Y6798D02*
G01X7219Y6798D01*
G01X7525Y6900D02*
G01X7525Y6696D01*
G01X7334Y6600D02*
G01X7334Y6426D01*
G01X7365Y6426D01*
G01X7394Y6440D01*
G01X7407Y6455D01*
G01X7423Y6484D01*
G01X7423Y6528D01*
G01X7407Y6557D01*
G01X7378Y6586D01*
G01X7334Y6600D01*
G01X7305Y6600D01*
G01X7263Y6586D01*
G01X7234Y6557D01*
G01X7219Y6528D01*
G01X7219Y6484D01*
G01X7234Y6455D01*
G01X7263Y6426D01*
G01X7423Y6330D02*
G01X7219Y6330D01*
G01X7365Y6330D02*
G01X7407Y6286D01*
G01X7423Y6257D01*
G01X7423Y6213D01*
G01X7407Y6184D01*
G01X7365Y6169D01*
G01X7219Y6169D01*
G01X7365Y6169D02*
G01X7407Y6126D01*
G01X7423Y6096D01*
G01X7423Y6053D01*
G01X7407Y6023D01*
G01X7365Y6009D01*
G01X7219Y6009D01*
G01X7423Y5913D02*
G01X7117Y5913D01*
G01X7378Y5913D02*
G01X7407Y5884D01*
G01X7423Y5855D01*
G01X7423Y5811D01*
G01X7407Y5782D01*
G01X7378Y5753D01*
G01X7334Y5738D01*
G01X7305Y5738D01*
G01X7263Y5753D01*
G01X7234Y5782D01*
G01X7219Y5811D01*
G01X7219Y5855D01*
G01X7234Y5884D01*
G01X7263Y5913D01*
G01X7334Y5642D02*
G01X7334Y5467D01*
G01X7365Y5467D01*
G01X7394Y5482D01*
G01X7407Y5496D01*
G01X7423Y5526D01*
G01X7423Y5569D01*
G01X7407Y5598D01*
G01X7378Y5628D01*
G01X7334Y5642D01*
G01X7305Y5642D01*
G01X7263Y5628D01*
G01X7234Y5598D01*
G01X7219Y5569D01*
G01X7219Y5526D01*
G01X7234Y5496D01*
G01X7263Y5467D01*
G01X7423Y5371D02*
G01X7219Y5371D01*
G01X7334Y5371D02*
G01X7378Y5357D01*
G01X7407Y5328D01*
G01X7423Y5300D01*
G01X7423Y5255D01*
G01X7423Y4984D02*
G01X7219Y4984D01*
G01X7378Y4984D02*
G01X7407Y5013D01*
G01X7423Y5044D01*
G01X7423Y5086D01*
G01X7407Y5115D01*
G01X7378Y5144D01*
G01X7334Y5159D01*
G01X7305Y5159D01*
G01X7263Y5144D01*
G01X7234Y5115D01*
G01X7219Y5086D01*
G01X7219Y5044D01*
G01X7234Y5013D01*
G01X7263Y4984D01*
G01X7525Y4846D02*
G01X7276Y4846D01*
G01X7234Y4830D01*
G01X7219Y4801D01*
G01X7219Y4773D01*
G01X7423Y4888D02*
G01X7423Y4786D01*
G01X7423Y4676D02*
G01X7276Y4676D01*
G01X7234Y4661D01*
G01X7219Y4632D01*
G01X7219Y4590D01*
G01X7234Y4561D01*
G01X7276Y4517D01*
G01X7423Y4517D02*
G01X7219Y4517D01*
G01X7423Y4421D02*
G01X7219Y4421D01*
G01X7334Y4421D02*
G01X7378Y4405D01*
G01X7407Y4376D01*
G01X7423Y4348D01*
G01X7423Y4303D01*
G01X7334Y4207D02*
G01X7334Y4034D01*
G01X7365Y4034D01*
G01X7394Y4048D01*
G01X7407Y4063D01*
G01X7423Y4092D01*
G01X7423Y4136D01*
G01X7407Y4165D01*
G01X7378Y4194D01*
G01X7334Y4207D01*
G01X7305Y4207D01*
G01X7263Y4194D01*
G01X7234Y4165D01*
G01X7219Y4136D01*
G01X7219Y4092D01*
G01X7234Y4063D01*
G01X7263Y4034D01*
G01X7276Y3909D02*
G01X7263Y3923D01*
G01X7276Y3938D01*
G01X7292Y3923D01*
G01X7276Y3909D01*
G01X7248Y3909D01*
G01X7219Y3938D01*
G54D34*
G01X536Y2294D02*
G01X507Y2280D01*
G01X478Y2251D01*
G01X465Y2221D01*
G01X450Y2178D01*
G01X450Y2105D01*
G01X465Y2061D01*
G01X478Y2032D01*
G01X507Y2003D01*
G01X536Y1988D01*
G01X594Y1988D01*
G01X625Y2003D01*
G01X653Y2032D01*
G01X667Y2061D01*
G01X682Y2105D01*
G01X682Y2178D01*
G01X667Y2221D01*
G01X653Y2251D01*
G01X625Y2280D01*
G01X594Y2294D01*
G01X536Y2294D01*
G01X580Y2046D02*
G01X667Y1959D01*
G01X778Y2236D02*
G01X807Y2251D01*
G01X851Y2294D01*
G01X851Y1988D01*
G01X950Y3896D02*
G01X1169Y3896D01*
G01X1211Y3911D01*
G01X1240Y3940D01*
G01X1255Y3983D01*
G01X1255Y4012D01*
G01X1240Y4056D01*
G01X1211Y4085D01*
G01X1169Y4100D01*
G01X950Y4100D01*
G01X950Y4225D02*
G01X950Y4385D01*
G01X1067Y4297D01*
G01X1067Y4341D01*
G01X1080Y4370D01*
G01X1096Y4385D01*
G01X1140Y4399D01*
G01X1169Y4399D01*
G01X1211Y4385D01*
G01X1240Y4356D01*
G01X1255Y4312D01*
G01X1255Y4268D01*
G01X1240Y4225D01*
G01X1226Y4210D01*
G01X1198Y4196D01*
G01X5550Y8144D02*
G01X5550Y7838D01*
G01X5550Y7838D02*
G01X5725Y7838D01*
G01X5821Y8144D02*
G01X5821Y7838D01*
G01X5821Y8144D02*
G01X6009Y8144D01*
G01X5821Y7998D02*
G01X5936Y7998D01*
G01X5821Y7838D02*
G01X6009Y7838D01*
G01X6105Y8144D02*
G01X6105Y7838D01*
G01X6105Y8144D02*
G01X6207Y8144D01*
G01X6251Y8130D01*
G01X6280Y8101D01*
G01X6294Y8071D01*
G01X6309Y8028D01*
G01X6309Y7955D01*
G01X6294Y7911D01*
G01X6280Y7882D01*
G01X6251Y7853D01*
G01X6207Y7838D01*
G01X6105Y7838D01*
G01X6405Y8086D02*
G01X6434Y8101D01*
G01X6478Y8144D01*
G01X6478Y7838D01*
G01X4700Y7650D02*
G01X4903Y7344D01*
G01X4903Y7650D02*
G01X4700Y7344D01*
G01X5000Y7590D02*
G01X5028Y7605D01*
G01X5071Y7650D01*
G01X5071Y7344D01*
G01X2700Y5300D02*
G01X2700Y5082D01*
G01X2713Y5038D01*
G01X2742Y5009D01*
G01X2786Y4994D01*
G01X2815Y4994D01*
G01X2859Y5009D01*
G01X2888Y5038D01*
G01X2903Y5082D01*
G01X2903Y5300D01*
G01X2998Y5242D02*
G01X3028Y5257D01*
G01X3071Y5300D01*
G01X3071Y4994D01*
G01X323Y6480D02*
G01X294Y6466D01*
G01X265Y6437D01*
G01X250Y6408D01*
G01X250Y6349D01*
G01X265Y6320D01*
G01X294Y6291D01*
G01X323Y6277D01*
G01X367Y6262D01*
G01X440Y6262D01*
G01X483Y6277D01*
G01X512Y6291D01*
G01X541Y6320D01*
G01X556Y6349D01*
G01X556Y6408D01*
G01X541Y6437D01*
G01X512Y6466D01*
G01X483Y6480D01*
G01X309Y6576D02*
G01X294Y6605D01*
G01X250Y6649D01*
G01X556Y6649D01*
G01X323Y6760D02*
G01X309Y6760D01*
G01X280Y6774D01*
G01X265Y6789D01*
G01X250Y6818D01*
G01X250Y6876D01*
G01X265Y6905D01*
G01X280Y6920D01*
G01X309Y6934D01*
G01X338Y6934D01*
G01X367Y6920D01*
G01X410Y6890D01*
G01X556Y6745D01*
G01X556Y6949D01*
G01X1550Y5300D02*
G01X1550Y4994D01*
G01X1550Y4994D02*
G01X1725Y4994D01*
G01X1965Y5300D02*
G01X1821Y5096D01*
G01X2038Y5096D01*
G01X1965Y5300D02*
G01X1965Y4994D01*
G01X1747Y7617D02*
G01X1718Y7603D01*
G01X1689Y7574D01*
G01X1674Y7544D01*
G01X1674Y7486D01*
G01X1689Y7457D01*
G01X1718Y7428D01*
G01X1747Y7414D01*
G01X1791Y7399D01*
G01X1864Y7399D01*
G01X1907Y7414D01*
G01X1936Y7428D01*
G01X1965Y7457D01*
G01X1980Y7486D01*
G01X1980Y7544D01*
G01X1965Y7574D01*
G01X1936Y7603D01*
G01X1907Y7617D01*
G01X1733Y7713D02*
G01X1718Y7742D01*
G01X1674Y7786D01*
G01X1980Y7786D01*
G01X1674Y7969D02*
G01X1689Y7926D01*
G01X1733Y7896D01*
G01X1805Y7882D01*
G01X1849Y7882D01*
G01X1922Y7896D01*
G01X1965Y7926D01*
G01X1980Y7969D01*
G01X1980Y7998D01*
G01X1965Y8042D01*
G01X1922Y8071D01*
G01X1849Y8086D01*
G01X1805Y8086D01*
G01X1733Y8071D01*
G01X1689Y8042D01*
G01X1674Y7998D01*
G01X1674Y7969D01*
G01X3149Y9450D02*
G01X3149Y9230D01*
G01X3164Y9188D01*
G01X3193Y9159D01*
G01X3236Y9144D01*
G01X3265Y9144D01*
G01X3309Y9159D01*
G01X3338Y9188D01*
G01X3353Y9230D01*
G01X3353Y9450D01*
G01X3594Y9450D02*
G01X3449Y9246D01*
G01X3667Y9246D01*
G01X3594Y9450D02*
G01X3594Y9144D01*
G01X5123Y6930D02*
G01X5094Y6917D01*
G01X5065Y6888D01*
G01X5050Y6857D01*
G01X5050Y6800D01*
G01X5065Y6771D01*
G01X5094Y6742D01*
G01X5123Y6728D01*
G01X5167Y6713D01*
G01X5240Y6713D01*
G01X5282Y6728D01*
G01X5311Y6742D01*
G01X5340Y6771D01*
G01X5355Y6800D01*
G01X5355Y6857D01*
G01X5340Y6888D01*
G01X5311Y6917D01*
G01X5282Y6930D01*
G01X5109Y7026D02*
G01X5094Y7055D01*
G01X5050Y7100D01*
G01X5355Y7100D01*
G01X2523Y7550D02*
G01X2494Y7536D01*
G01X2465Y7507D01*
G01X2450Y7477D01*
G01X2450Y7419D01*
G01X2465Y7390D01*
G01X2494Y7361D01*
G01X2523Y7347D01*
G01X2567Y7332D01*
G01X2640Y7332D01*
G01X2682Y7347D01*
G01X2711Y7361D01*
G01X2740Y7390D01*
G01X2755Y7419D01*
G01X2755Y7477D01*
G01X2740Y7507D01*
G01X2711Y7536D01*
G01X2682Y7550D01*
G01X2523Y7661D02*
G01X2509Y7661D01*
G01X2480Y7675D01*
G01X2465Y7690D01*
G01X2450Y7719D01*
G01X2450Y7777D01*
G01X2465Y7806D01*
G01X2480Y7821D01*
G01X2509Y7835D01*
G01X2538Y7835D01*
G01X2567Y7821D01*
G01X2609Y7792D01*
G01X2755Y7646D01*
G01X2755Y7850D01*
G01X4250Y3507D02*
G01X4555Y3507D01*
G01X4555Y3507D02*
G01X4555Y3682D01*
G01X4309Y3778D02*
G01X4294Y3807D01*
G01X4250Y3850D01*
G01X4555Y3850D01*
G01X3225Y8400D02*
G01X3530Y8400D01*
G01X3225Y8400D02*
G01X3225Y8530D01*
G01X3240Y8575D01*
G01X3255Y8588D01*
G01X3284Y8603D01*
G01X3313Y8603D01*
G01X3342Y8588D01*
G01X3355Y8575D01*
G01X3371Y8530D01*
G01X3371Y8400D01*
G01X3371Y8501D02*
G01X3530Y8603D01*
G01X3298Y8713D02*
G01X3284Y8713D01*
G01X3255Y8728D01*
G01X3240Y8742D01*
G01X3225Y8771D01*
G01X3225Y8830D01*
G01X3240Y8859D01*
G01X3255Y8873D01*
G01X3284Y8888D01*
G01X3313Y8888D01*
G01X3342Y8873D01*
G01X3384Y8844D01*
G01X3530Y8700D01*
G01X3530Y8903D01*
G01X350Y8500D02*
G01X350Y8194D01*
G01X350Y8500D02*
G01X480Y8500D01*
G01X525Y8484D01*
G01X538Y8469D01*
G01X553Y8440D01*
G01X553Y8411D01*
G01X538Y8382D01*
G01X525Y8369D01*
G01X480Y8353D01*
G01X350Y8353D01*
G01X451Y8353D02*
G01X553Y8194D01*
G01X650Y8440D02*
G01X678Y8455D01*
G01X721Y8500D01*
G01X721Y8194D01*
G01X5075Y5150D02*
G01X5380Y5150D01*
G01X5380Y5150D02*
G01X5380Y5325D01*
G01X5075Y5450D02*
G01X5075Y5609D01*
G01X5192Y5521D01*
G01X5192Y5565D01*
G01X5205Y5594D01*
G01X5221Y5609D01*
G01X5265Y5623D01*
G01X5294Y5623D01*
G01X5336Y5609D01*
G01X5365Y5580D01*
G01X5380Y5536D01*
G01X5380Y5492D01*
G01X5365Y5450D01*
G01X5351Y5434D01*
G01X5323Y5421D01*
G01X5500Y3126D02*
G01X5805Y3126D01*
G01X5805Y3126D02*
G01X5805Y3301D01*
G01X5573Y3411D02*
G01X5559Y3411D01*
G01X5530Y3426D01*
G01X5515Y3440D01*
G01X5500Y3469D01*
G01X5500Y3526D01*
G01X5515Y3557D01*
G01X5530Y3571D01*
G01X5559Y3586D01*
G01X5588Y3586D01*
G01X5617Y3571D01*
G01X5659Y3542D01*
G01X5805Y3396D01*
G01X5805Y3600D01*
G01X5123Y6165D02*
G01X5094Y6151D01*
G01X5065Y6121D01*
G01X5050Y6092D01*
G01X5050Y6034D01*
G01X5065Y6005D01*
G01X5094Y5976D01*
G01X5123Y5961D01*
G01X5167Y5946D01*
G01X5240Y5946D01*
G01X5282Y5961D01*
G01X5311Y5976D01*
G01X5340Y6005D01*
G01X5355Y6034D01*
G01X5355Y6092D01*
G01X5340Y6121D01*
G01X5311Y6151D01*
G01X5282Y6165D01*
G01X5094Y6436D02*
G01X5065Y6421D01*
G01X5050Y6378D01*
G01X5050Y6348D01*
G01X5065Y6305D01*
G01X5109Y6276D01*
G01X5180Y6261D01*
G01X5253Y6261D01*
G01X5311Y6276D01*
G01X5340Y6305D01*
G01X5355Y6348D01*
G01X5355Y6363D01*
G01X5340Y6407D01*
G01X5311Y6436D01*
G01X5269Y6450D01*
G01X5253Y6450D01*
G01X5209Y6436D01*
G01X5180Y6407D01*
G01X5167Y6363D01*
G01X5167Y6348D01*
G01X5180Y6305D01*
G01X5209Y6276D01*
G01X5253Y6261D01*
G01X575Y5400D02*
G01X880Y5400D01*
G01X880Y5400D02*
G01X880Y5575D01*
G01X575Y5844D02*
G01X575Y5700D01*
G01X705Y5684D01*
G01X692Y5700D01*
G01X676Y5742D01*
G01X676Y5786D01*
G01X692Y5830D01*
G01X721Y5859D01*
G01X765Y5873D01*
G01X794Y5873D01*
G01X836Y5859D01*
G01X865Y5830D01*
G01X880Y5786D01*
G01X880Y5742D01*
G01X865Y5700D01*
G01X851Y5684D01*
G01X823Y5671D01*
G01X3225Y7800D02*
G01X3530Y7800D01*
G01X3225Y7800D02*
G01X3225Y7930D01*
G01X3240Y7975D01*
G01X3255Y7988D01*
G01X3284Y8003D01*
G01X3313Y8003D01*
G01X3342Y7988D01*
G01X3355Y7975D01*
G01X3371Y7930D01*
G01X3371Y7800D01*
G01X3371Y7901D02*
G01X3530Y8003D01*
G01X3225Y8303D02*
G01X3530Y8157D01*
G01X3225Y8100D02*
G01X3225Y8303D01*
G01X3798Y5517D02*
G01X3769Y5503D01*
G01X3740Y5475D01*
G01X3725Y5444D01*
G01X3725Y5386D01*
G01X3740Y5357D01*
G01X3769Y5328D01*
G01X3798Y5315D01*
G01X3842Y5300D01*
G01X3915Y5300D01*
G01X3957Y5315D01*
G01X3986Y5328D01*
G01X4015Y5357D01*
G01X4030Y5386D01*
G01X4030Y5444D01*
G01X4015Y5475D01*
G01X3986Y5503D01*
G01X3957Y5517D01*
G01X3725Y5686D02*
G01X3740Y5642D01*
G01X3769Y5628D01*
G01X3798Y5628D01*
G01X3826Y5642D01*
G01X3842Y5671D01*
G01X3855Y5730D01*
G01X3871Y5773D01*
G01X3900Y5803D01*
G01X3928Y5817D01*
G01X3973Y5817D01*
G01X4001Y5803D01*
G01X4015Y5788D01*
G01X4030Y5744D01*
G01X4030Y5686D01*
G01X4015Y5642D01*
G01X4001Y5628D01*
G01X3973Y5613D01*
G01X3928Y5613D01*
G01X3900Y5628D01*
G01X3871Y5657D01*
G01X3855Y5701D01*
G01X3842Y5759D01*
G01X3826Y5788D01*
G01X3798Y5803D01*
G01X3769Y5803D01*
G01X3740Y5788D01*
G01X3725Y5744D01*
G01X3725Y5686D01*
G01X773Y8880D02*
G01X744Y8867D01*
G01X715Y8838D01*
G01X700Y8807D01*
G01X700Y8750D01*
G01X715Y8721D01*
G01X744Y8692D01*
G01X773Y8678D01*
G01X817Y8663D01*
G01X890Y8663D01*
G01X932Y8678D01*
G01X961Y8692D01*
G01X990Y8721D01*
G01X1005Y8750D01*
G01X1005Y8807D01*
G01X990Y8838D01*
G01X961Y8867D01*
G01X932Y8880D01*
G01X759Y8976D02*
G01X744Y9005D01*
G01X700Y9050D01*
G01X1005Y9050D01*
G01X700Y9175D02*
G01X700Y9334D01*
G01X817Y9248D01*
G01X817Y9290D01*
G01X830Y9319D01*
G01X846Y9334D01*
G01X890Y9350D01*
G01X919Y9350D01*
G01X961Y9334D01*
G01X990Y9305D01*
G01X1005Y9261D01*
G01X1005Y9219D01*
G01X990Y9175D01*
G01X976Y9159D01*
G01X948Y9146D01*
G01X5367Y4371D02*
G01X5353Y4401D01*
G01X5325Y4430D01*
G01X5294Y4444D01*
G01X5236Y4444D01*
G01X5207Y4430D01*
G01X5178Y4401D01*
G01X5165Y4371D01*
G01X5150Y4328D01*
G01X5150Y4255D01*
G01X5165Y4211D01*
G01X5178Y4182D01*
G01X5207Y4153D01*
G01X5236Y4138D01*
G01X5294Y4138D01*
G01X5325Y4153D01*
G01X5353Y4182D01*
G01X5367Y4211D01*
G01X5609Y4444D02*
G01X5463Y4240D01*
G01X5682Y4240D01*
G01X5609Y4444D02*
G01X5609Y4138D01*
G01X1023Y3011D02*
G01X994Y2998D01*
G01X965Y2969D01*
G01X950Y2938D01*
G01X950Y2880D01*
G01X965Y2851D01*
G01X994Y2823D01*
G01X1023Y2809D01*
G01X1067Y2794D01*
G01X1140Y2794D01*
G01X1182Y2809D01*
G01X1211Y2823D01*
G01X1240Y2851D01*
G01X1255Y2880D01*
G01X1255Y2938D01*
G01X1240Y2969D01*
G01X1211Y2998D01*
G01X1182Y3011D01*
G01X1009Y3107D02*
G01X994Y3136D01*
G01X950Y3180D01*
G01X1255Y3180D01*
G01X1009Y3276D02*
G01X994Y3305D01*
G01X950Y3350D01*
G01X1255Y3350D01*
G01X3448Y5517D02*
G01X3419Y5503D01*
G01X3390Y5475D01*
G01X3375Y5444D01*
G01X3375Y5386D01*
G01X3390Y5357D01*
G01X3419Y5328D01*
G01X3448Y5315D01*
G01X3492Y5300D01*
G01X3565Y5300D01*
G01X3607Y5315D01*
G01X3636Y5328D01*
G01X3665Y5357D01*
G01X3680Y5386D01*
G01X3680Y5444D01*
G01X3665Y5475D01*
G01X3636Y5503D01*
G01X3607Y5517D01*
G01X3375Y5817D02*
G01X3680Y5671D01*
G01X3375Y5613D02*
G01X3375Y5817D01*
G01X4323Y4500D02*
G01X4294Y4486D01*
G01X4265Y4457D01*
G01X4250Y4427D01*
G01X4250Y4369D01*
G01X4265Y4340D01*
G01X4294Y4311D01*
G01X4323Y4297D01*
G01X4367Y4282D01*
G01X4440Y4282D01*
G01X4482Y4297D01*
G01X4511Y4311D01*
G01X4540Y4340D01*
G01X4555Y4369D01*
G01X4555Y4427D01*
G01X4540Y4457D01*
G01X4511Y4486D01*
G01X4482Y4500D01*
G01X4250Y4771D02*
G01X4250Y4625D01*
G01X4380Y4611D01*
G01X4367Y4625D01*
G01X4351Y4669D01*
G01X4351Y4713D01*
G01X4367Y4756D01*
G01X4396Y4785D01*
G01X4440Y4800D01*
G01X4469Y4800D01*
G01X4511Y4785D01*
G01X4540Y4756D01*
G01X4555Y4713D01*
G01X4555Y4669D01*
G01X4540Y4625D01*
G01X4526Y4611D01*
G01X4498Y4596D01*
G01X4373Y2615D02*
G01X4344Y2601D01*
G01X4315Y2571D01*
G01X4300Y2542D01*
G01X4300Y2484D01*
G01X4315Y2455D01*
G01X4344Y2426D01*
G01X4373Y2411D01*
G01X4417Y2396D01*
G01X4490Y2396D01*
G01X4532Y2411D01*
G01X4561Y2426D01*
G01X4590Y2455D01*
G01X4605Y2484D01*
G01X4605Y2542D01*
G01X4590Y2571D01*
G01X4561Y2601D01*
G01X4532Y2615D01*
G01X4401Y2900D02*
G01X4446Y2886D01*
G01X4475Y2857D01*
G01X4490Y2813D01*
G01X4490Y2798D01*
G01X4475Y2755D01*
G01X4446Y2726D01*
G01X4401Y2711D01*
G01X4388Y2711D01*
G01X4344Y2726D01*
G01X4315Y2755D01*
G01X4300Y2798D01*
G01X4300Y2813D01*
G01X4315Y2857D01*
G01X4344Y2886D01*
G01X4401Y2900D01*
G01X4475Y2900D01*
G01X4548Y2886D01*
G01X4590Y2857D01*
G01X4605Y2813D01*
G01X4605Y2784D01*
G01X4590Y2740D01*
G01X4561Y2726D01*
G01X2250Y2100D02*
G01X2250Y1794D01*
G01X2250Y2100D02*
G01X2380Y2100D01*
G01X2425Y2084D01*
G01X2438Y2069D01*
G01X2453Y2040D01*
G01X2453Y2011D01*
G01X2438Y1982D01*
G01X2425Y1969D01*
G01X2380Y1953D01*
G01X2250Y1953D01*
G01X2351Y1953D02*
G01X2453Y1794D01*
G01X2723Y2055D02*
G01X2709Y2084D01*
G01X2665Y2100D01*
G01X2636Y2100D01*
G01X2592Y2084D01*
G01X2563Y2040D01*
G01X2550Y1969D01*
G01X2550Y1896D01*
G01X2563Y1838D01*
G01X2592Y1809D01*
G01X2636Y1794D01*
G01X2651Y1794D01*
G01X2694Y1809D01*
G01X2723Y1838D01*
G01X2738Y1880D01*
G01X2738Y1896D01*
G01X2723Y1940D01*
G01X2694Y1969D01*
G01X2651Y1982D01*
G01X2636Y1982D01*
G01X2592Y1969D01*
G01X2563Y1940D01*
G01X2550Y1896D01*
G01X5573Y2600D02*
G01X5544Y2586D01*
G01X5515Y2557D01*
G01X5500Y2526D01*
G01X5500Y2469D01*
G01X5515Y2440D01*
G01X5544Y2411D01*
G01X5573Y2396D01*
G01X5617Y2382D01*
G01X5690Y2382D01*
G01X5732Y2396D01*
G01X5761Y2411D01*
G01X5790Y2440D01*
G01X5805Y2469D01*
G01X5805Y2526D01*
G01X5790Y2557D01*
G01X5761Y2586D01*
G01X5732Y2600D01*
G01X5500Y2725D02*
G01X5500Y2884D01*
G01X5617Y2798D01*
G01X5617Y2842D01*
G01X5630Y2871D01*
G01X5646Y2884D01*
G01X5690Y2900D01*
G01X5719Y2900D01*
G01X5761Y2884D01*
G01X5790Y2855D01*
G01X5805Y2813D01*
G01X5805Y2769D01*
G01X5790Y2725D01*
G01X5776Y2711D01*
G01X5748Y2696D01*
G01X3100Y2119D02*
G01X3100Y1813D01*
G01X3100Y2119D02*
G01X3230Y2119D01*
G01X3275Y2104D01*
G01X3288Y2089D01*
G01X3303Y2060D01*
G01X3303Y2031D01*
G01X3288Y2002D01*
G01X3275Y1988D01*
G01X3230Y1973D01*
G01X3100Y1973D01*
G01X3201Y1973D02*
G01X3303Y1813D01*
G01X3428Y2119D02*
G01X3588Y2119D01*
G01X3501Y2002D01*
G01X3544Y2002D01*
G01X3573Y1988D01*
G01X3588Y1973D01*
G01X3603Y1929D01*
G01X3603Y1900D01*
G01X3588Y1857D01*
G01X3559Y1828D01*
G01X3515Y1813D01*
G01X3471Y1813D01*
G01X3428Y1828D01*
G01X3413Y1842D01*
G01X3400Y1871D01*
G01X2217Y376D02*
G01X2203Y405D01*
G01X2174Y434D01*
G01X2144Y450D01*
G01X2086Y450D01*
G01X2057Y434D01*
G01X2028Y405D01*
G01X2014Y376D01*
G01X1999Y332D01*
G01X1999Y259D01*
G01X2014Y217D01*
G01X2028Y188D01*
G01X2057Y159D01*
G01X2086Y144D01*
G01X2144Y144D01*
G01X2174Y159D01*
G01X2203Y188D01*
G01X2217Y217D01*
G01X2313Y390D02*
G01X2342Y405D01*
G01X2386Y450D01*
G01X2386Y144D01*
G01X2627Y450D02*
G01X2482Y246D01*
G01X2700Y246D01*
G01X2627Y450D02*
G01X2627Y144D01*
G54D35*
G75*
G01X1322Y4732D02*
G03X1322Y4730I-59J-1D01*
G01*
G54D10*
G75*
G01X2980Y400D02*
G03X2980Y400I-50J0D01*
G01*
G75*
G01X2795Y5884D02*
G03X2795Y5884I-98J0D01*
G01*
G54D35*
G75*
G01X3038Y8022D02*
G03X3038Y8022I-39J0D01*
G01*
M00*
M02*
