;Layer: Drill PTH
;EasyEDA v6.2.46, 2019-12-26T15:44:02--5:00
;111d7bdae86b4e7985bcd74f00d2b945,ad3383c819c44bf79b2f5f1fb32db82d,10
;Gerber Generator version 0.2
M48
INCH,LZ,00.0000
;Holesize 1 = 0.012 INCH
T01C0.012
;Holesize 2 = 0.047 INCH
T02C0.047
%
G05
G90
T01
X+000950Y+007850
X+000700Y+007850
X+000850Y+007550
X+003400Y+007650
X+003150Y+004150
X+003150Y+003800
X+003150Y+003450
X+003150Y+003100
X+000450Y+001100
X+005200Y+002150
X+005450Y+002150
X+005700Y+002150
X+005450Y+003900
X+005700Y+003900
X+005700Y+007150
X+005700Y+006850
X+005700Y+006550
X+005700Y+005050
X+005700Y+005350
X+005700Y+006250
X+005500Y+008400
X+005200Y+009000
X+005450Y+009000
X+005700Y+009000
X+005250Y+001500
X+005500Y+001500
X+005750Y+001500
X+005250Y+007550
X+002700Y+001800
X+001150Y+000519
X+000450Y+008450
X+002950Y+007750
X+005750Y+008400
X+000650Y+002050
X+004400Y+004300
X+005200Y+003900
X+004300Y+002100
X+001800Y+007500
X+002600Y+007400
X+001100Y+007550
X+001400Y+007900
X+000800Y+001450
X+006400Y+008150
X+004150Y+002400
X+003950Y+002100
X+002800Y+003100
X+002800Y+003450
X+002100Y+003100
X+002450Y+003100
X+002450Y+003450
X+002100Y+003450
X+002100Y+003800
X+002450Y+003800
X+002800Y+003800
X+002800Y+004150
X+002450Y+004150
X+002100Y+004150
X+003350Y+008700
X+002272Y+001350
X+000250Y+002350
X+000250Y+008700
X+005900Y+007550
T02
X+004250Y+000700
X+005250Y+000700
X+006250Y+000700
X+007250Y+000700
M30
