G04 Layer: BottomSolderMaskLayer*
G04 EasyEDA v6.2.46, 2019-12-26T15:44:02--5:00*
G04 111d7bdae86b4e7985bcd74f00d2b945,ad3383c819c44bf79b2f5f1fb32db82d,10*
G04 Gerber Generator version 0.2*
G04 Scale: 100 percent, Rotated: No, Reflected: No *
G04 Dimensions in inches *
G04 leading zeros omitted , absolute positions ,2 integer and 4 decimal *
%FSLAX24Y24*%
%MOIN*%
G90*
G70D02*

%ADD48C,0.078866*%
%ADD53R,0.033000X0.033000*%

%LPD*%
G36*
G01X3855Y305D02*
G01X3855Y1094D01*
G01X4644Y1094D01*
G01X4644Y305D01*
G01X3855Y305D01*
G37*
G54D48*
G01X5250Y700D03*
G01X6250Y700D03*
G01X7250Y700D03*
G54D53*
G01X6750Y9000D03*
G36*
G01X6250Y8334D02*
G01X6230Y8336D01*
G01X6211Y8340D01*
G01X6190Y8346D01*
G01X6173Y8353D01*
G01X6155Y8363D01*
G01X6140Y8376D01*
G01X6126Y8390D01*
G01X6113Y8405D01*
G01X6103Y8423D01*
G01X6096Y8440D01*
G01X6090Y8461D01*
G01X6086Y8480D01*
G01X6084Y8500D01*
G01X6086Y8519D01*
G01X6090Y8538D01*
G01X6096Y8559D01*
G01X6103Y8576D01*
G01X6113Y8594D01*
G01X6126Y8609D01*
G01X6140Y8623D01*
G01X6155Y8636D01*
G01X6173Y8646D01*
G01X6190Y8653D01*
G01X6211Y8659D01*
G01X6230Y8663D01*
G01X6250Y8665D01*
G01X6269Y8663D01*
G01X6288Y8659D01*
G01X6309Y8653D01*
G01X6326Y8646D01*
G01X6344Y8636D01*
G01X6359Y8623D01*
G01X6373Y8609D01*
G01X6386Y8594D01*
G01X6396Y8576D01*
G01X6403Y8559D01*
G01X6409Y8538D01*
G01X6413Y8519D01*
G01X6415Y8500D01*
G01X6413Y8480D01*
G01X6409Y8461D01*
G01X6403Y8440D01*
G01X6396Y8423D01*
G01X6386Y8405D01*
G01X6373Y8390D01*
G01X6359Y8376D01*
G01X6344Y8363D01*
G01X6326Y8353D01*
G01X6309Y8346D01*
G01X6288Y8340D01*
G01X6269Y8336D01*
G01X6250Y8334D01*
G37*
G36*
G01X7250Y8334D02*
G01X7230Y8336D01*
G01X7211Y8340D01*
G01X7190Y8346D01*
G01X7173Y8353D01*
G01X7155Y8363D01*
G01X7140Y8376D01*
G01X7126Y8390D01*
G01X7113Y8405D01*
G01X7103Y8423D01*
G01X7096Y8440D01*
G01X7090Y8461D01*
G01X7086Y8480D01*
G01X7084Y8500D01*
G01X7086Y8519D01*
G01X7090Y8538D01*
G01X7096Y8559D01*
G01X7103Y8576D01*
G01X7113Y8594D01*
G01X7126Y8609D01*
G01X7140Y8623D01*
G01X7155Y8636D01*
G01X7173Y8646D01*
G01X7190Y8653D01*
G01X7211Y8659D01*
G01X7230Y8663D01*
G01X7250Y8665D01*
G01X7269Y8663D01*
G01X7288Y8659D01*
G01X7309Y8653D01*
G01X7326Y8646D01*
G01X7344Y8636D01*
G01X7359Y8623D01*
G01X7373Y8609D01*
G01X7386Y8594D01*
G01X7396Y8576D01*
G01X7403Y8559D01*
G01X7409Y8538D01*
G01X7413Y8519D01*
G01X7415Y8500D01*
G01X7413Y8480D01*
G01X7409Y8461D01*
G01X7403Y8440D01*
G01X7396Y8423D01*
G01X7386Y8405D01*
G01X7373Y8390D01*
G01X7359Y8376D01*
G01X7344Y8363D01*
G01X7326Y8353D01*
G01X7309Y8346D01*
G01X7288Y8340D01*
G01X7269Y8336D01*
G01X7250Y8334D01*
G37*
G36*
G01X6750Y8334D02*
G01X6730Y8336D01*
G01X6711Y8340D01*
G01X6690Y8346D01*
G01X6673Y8353D01*
G01X6655Y8363D01*
G01X6640Y8376D01*
G01X6626Y8390D01*
G01X6613Y8405D01*
G01X6603Y8423D01*
G01X6596Y8440D01*
G01X6590Y8461D01*
G01X6586Y8480D01*
G01X6584Y8500D01*
G01X6586Y8519D01*
G01X6590Y8538D01*
G01X6596Y8559D01*
G01X6603Y8576D01*
G01X6613Y8594D01*
G01X6626Y8609D01*
G01X6640Y8623D01*
G01X6655Y8636D01*
G01X6673Y8646D01*
G01X6690Y8653D01*
G01X6711Y8659D01*
G01X6730Y8663D01*
G01X6750Y8665D01*
G01X6769Y8663D01*
G01X6788Y8659D01*
G01X6809Y8653D01*
G01X6826Y8646D01*
G01X6844Y8636D01*
G01X6859Y8623D01*
G01X6873Y8609D01*
G01X6886Y8594D01*
G01X6896Y8576D01*
G01X6903Y8559D01*
G01X6909Y8538D01*
G01X6913Y8519D01*
G01X6915Y8500D01*
G01X6913Y8480D01*
G01X6909Y8461D01*
G01X6903Y8440D01*
G01X6896Y8423D01*
G01X6886Y8405D01*
G01X6873Y8390D01*
G01X6859Y8376D01*
G01X6844Y8363D01*
G01X6826Y8353D01*
G01X6809Y8346D01*
G01X6788Y8340D01*
G01X6769Y8336D01*
G01X6750Y8334D01*
G37*
G36*
G01X1219Y128D02*
G01X1219Y909D01*
G01X2300Y909D01*
G01X2300Y128D01*
G01X1219Y128D01*
G37*
G36*
G01X1150Y2251D02*
G01X955Y2263D01*
G01X763Y2298D01*
G01X576Y2355D01*
G01X400Y2436D01*
G01X232Y2536D01*
G01X78Y2657D01*
G01X-59Y2794D01*
G01X-178Y2948D01*
G01X-280Y3115D01*
G01X-359Y3292D01*
G01X-417Y3478D01*
G01X-453Y3671D01*
G01X-465Y3865D01*
G01X-465Y5834D01*
G01X-453Y6028D01*
G01X-417Y6221D01*
G01X-359Y6407D01*
G01X-280Y6584D01*
G01X-178Y6751D01*
G01X-59Y6905D01*
G01X78Y7042D01*
G01X232Y7163D01*
G01X400Y7263D01*
G01X576Y7344D01*
G01X763Y7401D01*
G01X955Y7436D01*
G01X1150Y7448D01*
G01X1344Y7436D01*
G01X1536Y7401D01*
G01X1723Y7344D01*
G01X1900Y7263D01*
G01X2067Y7163D01*
G01X2221Y7042D01*
G01X2359Y6905D01*
G01X2478Y6751D01*
G01X2580Y6584D01*
G01X2659Y6407D01*
G01X2717Y6221D01*
G01X2753Y6028D01*
G01X2765Y5834D01*
G01X2765Y3865D01*
G01X2753Y3671D01*
G01X2717Y3478D01*
G01X2659Y3292D01*
G01X2580Y3115D01*
G01X2478Y2948D01*
G01X2359Y2794D01*
G01X2221Y2657D01*
G01X2067Y2536D01*
G01X1900Y2436D01*
G01X1723Y2355D01*
G01X1536Y2298D01*
G01X1344Y2263D01*
G01X1150Y2251D01*
G37*
G36*
G01X1219Y8790D02*
G01X1219Y9571D01*
G01X2300Y9571D01*
G01X2300Y8790D01*
G01X1219Y8790D01*
G37*
G36*
G01X0Y128D02*
G01X0Y909D01*
G01X1080Y909D01*
G01X1080Y128D01*
G01X0Y128D01*
G37*
G36*
G01X0Y8790D02*
G01X0Y9571D01*
G01X1080Y9571D01*
G01X1080Y8790D01*
G01X0Y8790D01*
G37*
M00*
M02*
