G04 Layer: TopSolderMaskLayer*
G04 EasyEDA v6.2.46, 2019-12-26T15:44:02--5:00*
G04 111d7bdae86b4e7985bcd74f00d2b945,ad3383c819c44bf79b2f5f1fb32db82d,10*
G04 Gerber Generator version 0.2*
G04 Scale: 100 percent, Rotated: No, Reflected: No *
G04 Dimensions in inches *
G04 leading zeros omitted , absolute positions ,2 integer and 4 decimal *
%FSLAX24Y24*%
%MOIN*%
G90*
G70D02*

%ADD39C,0.016661*%
%ADD42R,0.051000X0.047000*%
%ADD48C,0.078866*%

%LPD*%
G54D39*
G01X1854Y2522D02*
G01X1854Y2215D01*
G01X2011Y2522D02*
G01X2011Y2215D01*
G01X2168Y2522D02*
G01X2168Y2215D01*
G01X2326Y2522D02*
G01X2326Y2215D01*
G01X2483Y2522D02*
G01X2483Y2215D01*
G01X2641Y2522D02*
G01X2641Y2215D01*
G01X2798Y2522D02*
G01X2798Y2215D01*
G01X2956Y2522D02*
G01X2956Y2215D01*
G01X3113Y2522D02*
G01X3113Y2215D01*
G01X3271Y2522D02*
G01X3271Y2215D01*
G01X3428Y2522D02*
G01X3428Y2215D01*
G01X3586Y2522D02*
G01X3586Y2215D01*
G01X3586Y4577D02*
G01X3586Y4884D01*
G01X3428Y4577D02*
G01X3428Y4884D01*
G01X3271Y4577D02*
G01X3271Y4884D01*
G01X3113Y4577D02*
G01X3113Y4884D01*
G01X2956Y4577D02*
G01X2956Y4884D01*
G01X2798Y4577D02*
G01X2798Y4884D01*
G01X2641Y4577D02*
G01X2641Y4884D01*
G01X2483Y4577D02*
G01X2483Y4884D01*
G01X2326Y4577D02*
G01X2326Y4884D01*
G01X2168Y4577D02*
G01X2168Y4884D01*
G01X2011Y4577D02*
G01X2011Y4884D01*
G01X1854Y4577D02*
G01X1854Y4884D01*
G01X3747Y4416D02*
G01X4054Y4416D01*
G01X3747Y4258D02*
G01X4054Y4258D01*
G01X3747Y4101D02*
G01X4054Y4101D01*
G01X3747Y3943D02*
G01X4054Y3943D01*
G01X3747Y3786D02*
G01X4054Y3786D01*
G01X3747Y3628D02*
G01X4054Y3628D01*
G01X3747Y3471D02*
G01X4054Y3471D01*
G01X3747Y3313D02*
G01X4054Y3313D01*
G01X3747Y3156D02*
G01X4054Y3156D01*
G01X3747Y2998D02*
G01X4054Y2998D01*
G01X3747Y2841D02*
G01X4054Y2841D01*
G01X3747Y2683D02*
G01X4054Y2683D01*
G01X1692Y2683D02*
G01X1385Y2683D01*
G01X1692Y2841D02*
G01X1385Y2841D01*
G01X1692Y2998D02*
G01X1385Y2998D01*
G01X1692Y3156D02*
G01X1385Y3156D01*
G01X1692Y3313D02*
G01X1385Y3313D01*
G01X1692Y3471D02*
G01X1385Y3471D01*
G01X1692Y3628D02*
G01X1385Y3628D01*
G01X1692Y3786D02*
G01X1385Y3786D01*
G01X1692Y3943D02*
G01X1385Y3943D01*
G01X1692Y4101D02*
G01X1385Y4101D01*
G01X1692Y4258D02*
G01X1385Y4258D01*
G01X1692Y4416D02*
G01X1385Y4416D01*
G36*
G01X648Y330D02*
G01X648Y901D01*
G01X1003Y901D01*
G01X1003Y330D01*
G01X648Y330D01*
G37*
G36*
G01X273Y1313D02*
G01X273Y1886D01*
G01X630Y1886D01*
G01X630Y1313D01*
G01X273Y1313D01*
G37*
G36*
G01X1021Y1313D02*
G01X1021Y1886D01*
G01X1378Y1886D01*
G01X1378Y1313D01*
G01X1021Y1313D01*
G37*
G36*
G01X1430Y567D02*
G01X1430Y892D01*
G01X1990Y892D01*
G01X1990Y567D01*
G01X1430Y567D01*
G37*
G36*
G01X1430Y1307D02*
G01X1430Y1632D01*
G01X1990Y1632D01*
G01X1990Y1307D01*
G01X1430Y1307D01*
G37*
G36*
G01X2469Y1307D02*
G01X2469Y1632D01*
G01X3030Y1632D01*
G01X3030Y1307D01*
G01X2469Y1307D01*
G37*
G36*
G01X2469Y938D02*
G01X2469Y1261D01*
G01X3030Y1261D01*
G01X3030Y938D01*
G01X2469Y938D01*
G37*
G36*
G01X2469Y567D02*
G01X2469Y892D01*
G01X3030Y892D01*
G01X3030Y567D01*
G01X2469Y567D01*
G37*
G36*
G01X1430Y936D02*
G01X1430Y1263D01*
G01X1990Y1263D01*
G01X1990Y936D01*
G01X1430Y936D01*
G37*
G54D42*
G01X5050Y8100D03*
G01X4380Y8100D03*
G36*
G01X5850Y5709D02*
G01X5838Y5711D01*
G01X5828Y5713D01*
G01X5817Y5715D01*
G01X5807Y5719D01*
G01X5790Y5732D01*
G01X5782Y5740D01*
G01X5769Y5757D01*
G01X5765Y5767D01*
G01X5763Y5778D01*
G01X5761Y5788D01*
G01X5759Y5800D01*
G01X5761Y5811D01*
G01X5763Y5821D01*
G01X5765Y5832D01*
G01X5769Y5842D01*
G01X5782Y5859D01*
G01X5790Y5867D01*
G01X5807Y5880D01*
G01X5817Y5884D01*
G01X5828Y5886D01*
G01X5838Y5888D01*
G01X5850Y5890D01*
G01X5861Y5888D01*
G01X5871Y5886D01*
G01X5882Y5884D01*
G01X5892Y5880D01*
G01X5909Y5867D01*
G01X5917Y5859D01*
G01X5930Y5842D01*
G01X5934Y5832D01*
G01X5936Y5821D01*
G01X5938Y5811D01*
G01X5940Y5800D01*
G01X5938Y5788D01*
G01X5936Y5778D01*
G01X5934Y5767D01*
G01X5930Y5757D01*
G01X5917Y5740D01*
G01X5909Y5732D01*
G01X5892Y5719D01*
G01X5882Y5715D01*
G01X5871Y5713D01*
G01X5861Y5711D01*
G01X5850Y5709D01*
G37*
G36*
G01X2971Y6138D02*
G01X2971Y6692D01*
G01X3461Y6692D01*
G01X3603Y6550D01*
G01X3603Y6138D01*
G01X2971Y6138D01*
G37*
G36*
G01X3836Y6138D02*
G01X3836Y6692D01*
G01X4469Y6692D01*
G01X4469Y6138D01*
G01X3836Y6138D01*
G37*
G36*
G01X3836Y6807D02*
G01X3836Y7361D01*
G01X4469Y7361D01*
G01X4469Y6807D01*
G01X3836Y6807D01*
G37*
G36*
G01X2971Y6807D02*
G01X2971Y7361D01*
G01X3603Y7361D01*
G01X3603Y6807D01*
G01X2971Y6807D01*
G37*
G36*
G01X1853Y2684D02*
G01X1853Y4417D01*
G01X3586Y4417D01*
G01X3586Y2684D01*
G01X1853Y2684D01*
G37*
G36*
G01X742Y6763D02*
G01X742Y7236D01*
G01X1257Y7236D01*
G01X1257Y6763D01*
G01X742Y6763D01*
G37*
G36*
G01X742Y6211D02*
G01X742Y6686D01*
G01X1257Y6686D01*
G01X1257Y6211D01*
G01X742Y6211D01*
G37*
G36*
G01X1461Y5392D02*
G01X1461Y5907D01*
G01X1936Y5907D01*
G01X1936Y5392D01*
G01X1461Y5392D01*
G37*
G36*
G01X2013Y5392D02*
G01X2013Y5907D01*
G01X2486Y5907D01*
G01X2486Y5392D01*
G01X2013Y5392D01*
G37*
G36*
G01X3855Y305D02*
G01X3855Y1094D01*
G01X4644Y1094D01*
G01X4644Y305D01*
G01X3855Y305D01*
G37*
G54D48*
G01X5250Y700D03*
G01X6250Y700D03*
G01X7250Y700D03*
G36*
G01X1542Y6763D02*
G01X1542Y7236D01*
G01X2057Y7236D01*
G01X2057Y6763D01*
G01X1542Y6763D01*
G37*
G36*
G01X1542Y6211D02*
G01X1542Y6686D01*
G01X2057Y6686D01*
G01X2057Y6211D01*
G01X1542Y6211D01*
G37*
G36*
G01X2692Y8226D02*
G01X2692Y8484D01*
G01X3048Y8484D01*
G01X3048Y8226D01*
G01X2692Y8226D01*
G37*
G36*
G01X2692Y8621D02*
G01X2692Y8878D01*
G01X3048Y8878D01*
G01X3048Y8621D01*
G01X2692Y8621D01*
G37*
G36*
G01X2692Y9015D02*
G01X2692Y9273D01*
G01X3048Y9273D01*
G01X3048Y9015D01*
G01X2692Y9015D01*
G37*
G36*
G01X1530Y9015D02*
G01X1530Y9273D01*
G01X1886Y9273D01*
G01X1886Y9015D01*
G01X1530Y9015D01*
G37*
G36*
G01X1530Y8621D02*
G01X1530Y8878D01*
G01X1886Y8878D01*
G01X1886Y8621D01*
G01X1530Y8621D01*
G37*
G36*
G01X1530Y8226D02*
G01X1530Y8484D01*
G01X1886Y8484D01*
G01X1886Y8226D01*
G01X1530Y8226D01*
G37*
G36*
G01X1965Y8238D02*
G01X1965Y9261D01*
G01X2634Y9261D01*
G01X2634Y8238D01*
G01X1965Y8238D01*
G37*
G36*
G01X4651Y6909D02*
G01X4651Y7225D01*
G01X4988Y7225D01*
G01X4988Y6909D01*
G01X4651Y6909D01*
G37*
G36*
G01X4651Y6575D02*
G01X4651Y6890D01*
G01X4988Y6890D01*
G01X4988Y6575D01*
G01X4651Y6575D01*
G37*
G36*
G01X2432Y6575D02*
G01X2432Y6890D01*
G01X2767Y6890D01*
G01X2767Y6575D01*
G01X2432Y6575D01*
G37*
G36*
G01X2432Y6909D02*
G01X2432Y7225D01*
G01X2767Y7225D01*
G01X2767Y6909D01*
G01X2432Y6909D01*
G37*
G36*
G01X4651Y3709D02*
G01X4651Y4025D01*
G01X4988Y4025D01*
G01X4988Y3709D01*
G01X4651Y3709D01*
G37*
G36*
G01X4651Y3375D02*
G01X4651Y3690D01*
G01X4988Y3690D01*
G01X4988Y3375D01*
G01X4651Y3375D01*
G37*
G36*
G01X3582Y8357D02*
G01X3582Y8673D01*
G01X3917Y8673D01*
G01X3917Y8357D01*
G01X3582Y8357D01*
G37*
G36*
G01X3582Y8692D02*
G01X3582Y9007D01*
G01X3917Y9007D01*
G01X3917Y8692D01*
G01X3582Y8692D01*
G37*
G36*
G01X807Y8182D02*
G01X807Y8517D01*
G01X1123Y8517D01*
G01X1123Y8182D01*
G01X807Y8182D01*
G37*
G36*
G01X1142Y8182D02*
G01X1142Y8517D01*
G01X1457Y8517D01*
G01X1457Y8182D01*
G01X1142Y8182D01*
G37*
G36*
G01X4651Y5409D02*
G01X4651Y5725D01*
G01X4988Y5725D01*
G01X4988Y5409D01*
G01X4651Y5409D01*
G37*
G36*
G01X4651Y5075D02*
G01X4651Y5390D01*
G01X4988Y5390D01*
G01X4988Y5075D01*
G01X4651Y5075D01*
G37*
G36*
G01X5051Y3342D02*
G01X5051Y3657D01*
G01X5388Y3657D01*
G01X5388Y3342D01*
G01X5051Y3342D01*
G37*
G36*
G01X5051Y3007D02*
G01X5051Y3323D01*
G01X5388Y3323D01*
G01X5388Y3007D01*
G01X5051Y3007D01*
G37*
G36*
G01X4651Y5875D02*
G01X4651Y6190D01*
G01X4988Y6190D01*
G01X4988Y5875D01*
G01X4651Y5875D01*
G37*
G36*
G01X4651Y6209D02*
G01X4651Y6525D01*
G01X4988Y6525D01*
G01X4988Y6209D01*
G01X4651Y6209D01*
G37*
G36*
G01X1001Y5325D02*
G01X1001Y5640D01*
G01X1338Y5640D01*
G01X1338Y5325D01*
G01X1001Y5325D01*
G37*
G36*
G01X1001Y5659D02*
G01X1001Y5975D01*
G01X1338Y5975D01*
G01X1338Y5659D01*
G01X1001Y5659D01*
G37*
G36*
G01X3582Y7976D02*
G01X3582Y8292D01*
G01X3917Y8292D01*
G01X3917Y7976D01*
G01X3582Y7976D01*
G37*
G36*
G01X3582Y7642D02*
G01X3582Y7957D01*
G01X3917Y7957D01*
G01X3917Y7642D01*
G01X3582Y7642D01*
G37*
G36*
G01X4101Y5275D02*
G01X4101Y5590D01*
G01X4438Y5590D01*
G01X4438Y5275D01*
G01X4101Y5275D01*
G37*
G36*
G01X4101Y5609D02*
G01X4101Y5925D01*
G01X4438Y5925D01*
G01X4438Y5609D01*
G01X4101Y5609D01*
G37*
G36*
G01X1132Y8926D02*
G01X1132Y9242D01*
G01X1467Y9242D01*
G01X1467Y8926D01*
G01X1132Y8926D01*
G37*
G36*
G01X1132Y8592D02*
G01X1132Y8907D01*
G01X1467Y8907D01*
G01X1467Y8592D01*
G01X1132Y8592D01*
G37*
G36*
G01X5061Y4532D02*
G01X5061Y4867D01*
G01X5378Y4867D01*
G01X5378Y4532D01*
G01X5061Y4532D01*
G37*
G36*
G01X5396Y4532D02*
G01X5396Y4867D01*
G01X5711Y4867D01*
G01X5711Y4532D01*
G01X5396Y4532D01*
G37*
G36*
G01X1032Y2326D02*
G01X1032Y2642D01*
G01X1367Y2642D01*
G01X1367Y2326D01*
G01X1032Y2326D01*
G37*
G36*
G01X1032Y1992D02*
G01X1032Y2307D01*
G01X1367Y2307D01*
G01X1367Y1992D01*
G01X1032Y1992D01*
G37*
G36*
G01X2951Y5325D02*
G01X2951Y5640D01*
G01X3288Y5640D01*
G01X3288Y5325D01*
G01X2951Y5325D01*
G37*
G36*
G01X2951Y5659D02*
G01X2951Y5975D01*
G01X3288Y5975D01*
G01X3288Y5659D01*
G01X2951Y5659D01*
G37*
G36*
G01X4651Y4542D02*
G01X4651Y4857D01*
G01X4988Y4857D01*
G01X4988Y4542D01*
G01X4651Y4542D01*
G37*
G36*
G01X4651Y4207D02*
G01X4651Y4523D01*
G01X4988Y4523D01*
G01X4988Y4207D01*
G01X4651Y4207D01*
G37*
G36*
G01X4651Y2642D02*
G01X4651Y2957D01*
G01X4988Y2957D01*
G01X4988Y2642D01*
G01X4651Y2642D01*
G37*
G36*
G01X4651Y2307D02*
G01X4651Y2623D01*
G01X4988Y2623D01*
G01X4988Y2307D01*
G01X4651Y2307D01*
G37*
G36*
G01X1792Y1782D02*
G01X1792Y2117D01*
G01X2107Y2117D01*
G01X2107Y1782D01*
G01X1792Y1782D01*
G37*
G36*
G01X1457Y1782D02*
G01X1457Y2117D01*
G01X1773Y2117D01*
G01X1773Y1782D01*
G01X1457Y1782D01*
G37*
G36*
G01X5051Y2642D02*
G01X5051Y2957D01*
G01X5388Y2957D01*
G01X5388Y2642D01*
G01X5051Y2642D01*
G37*
G36*
G01X5051Y2307D02*
G01X5051Y2623D01*
G01X5388Y2623D01*
G01X5388Y2307D01*
G01X5051Y2307D01*
G37*
G36*
G01X3092Y611D02*
G01X3092Y1086D01*
G01X3607Y1086D01*
G01X3607Y611D01*
G01X3092Y611D01*
G37*
G36*
G01X3092Y1163D02*
G01X3092Y1636D01*
G01X3607Y1636D01*
G01X3607Y1163D01*
G01X3092Y1163D01*
G37*
G36*
G01X3276Y182D02*
G01X3276Y517D01*
G01X3592Y517D01*
G01X3592Y182D01*
G01X3276Y182D01*
G37*
G36*
G01X2942Y182D02*
G01X2942Y517D01*
G01X3257Y517D01*
G01X3257Y182D01*
G01X2942Y182D01*
G37*
M00*
M02*
