G04 Layer: BottomPasteMaskLayer*
G04 EasyEDA v6.2.46, 2019-12-26T15:44:02--5:00*
G04 111d7bdae86b4e7985bcd74f00d2b945,ad3383c819c44bf79b2f5f1fb32db82d,10*
G04 Gerber Generator version 0.2*
G04 Scale: 100 percent, Rotated: No, Reflected: No *
G04 Dimensions in inches *
G04 leading zeros omitted , absolute positions ,2 integer and 4 decimal *
%FSLAX24Y24*%
%MOIN*%
G90*
G70D02*


%LPD*%
G36*
G01X6625Y9125D02*
G01X6625Y8875D01*
G01X6875Y8875D01*
G01X6875Y9125D01*
G01X6625Y9125D01*
G37*
G36*
G01X6250Y8625D02*
G01X6234Y8624D01*
G01X6220Y8621D01*
G01X6205Y8616D01*
G01X6191Y8610D01*
G01X6178Y8602D01*
G01X6167Y8593D01*
G01X6156Y8582D01*
G01X6147Y8571D01*
G01X6139Y8558D01*
G01X6133Y8544D01*
G01X6128Y8529D01*
G01X6125Y8515D01*
G01X6125Y8500D01*
G01X6125Y8484D01*
G01X6128Y8470D01*
G01X6133Y8455D01*
G01X6139Y8441D01*
G01X6147Y8428D01*
G01X6156Y8417D01*
G01X6167Y8406D01*
G01X6178Y8397D01*
G01X6191Y8389D01*
G01X6205Y8383D01*
G01X6220Y8378D01*
G01X6234Y8375D01*
G01X6250Y8375D01*
G01X6265Y8375D01*
G01X6279Y8378D01*
G01X6294Y8383D01*
G01X6308Y8389D01*
G01X6321Y8397D01*
G01X6332Y8406D01*
G01X6343Y8417D01*
G01X6352Y8428D01*
G01X6360Y8441D01*
G01X6366Y8455D01*
G01X6371Y8470D01*
G01X6374Y8484D01*
G01X6375Y8500D01*
G01X6374Y8515D01*
G01X6371Y8529D01*
G01X6366Y8544D01*
G01X6360Y8558D01*
G01X6352Y8571D01*
G01X6343Y8582D01*
G01X6332Y8593D01*
G01X6321Y8602D01*
G01X6308Y8610D01*
G01X6294Y8616D01*
G01X6279Y8621D01*
G01X6265Y8624D01*
G01X6250Y8625D01*
G37*
G36*
G01X7250Y8625D02*
G01X7234Y8624D01*
G01X7220Y8621D01*
G01X7205Y8616D01*
G01X7191Y8610D01*
G01X7178Y8602D01*
G01X7167Y8593D01*
G01X7156Y8582D01*
G01X7147Y8571D01*
G01X7139Y8558D01*
G01X7133Y8544D01*
G01X7128Y8529D01*
G01X7125Y8515D01*
G01X7125Y8500D01*
G01X7125Y8484D01*
G01X7128Y8470D01*
G01X7133Y8455D01*
G01X7139Y8441D01*
G01X7147Y8428D01*
G01X7156Y8417D01*
G01X7167Y8406D01*
G01X7178Y8397D01*
G01X7191Y8389D01*
G01X7205Y8383D01*
G01X7220Y8378D01*
G01X7234Y8375D01*
G01X7250Y8375D01*
G01X7265Y8375D01*
G01X7279Y8378D01*
G01X7294Y8383D01*
G01X7308Y8389D01*
G01X7321Y8397D01*
G01X7332Y8406D01*
G01X7343Y8417D01*
G01X7352Y8428D01*
G01X7360Y8441D01*
G01X7366Y8455D01*
G01X7371Y8470D01*
G01X7374Y8484D01*
G01X7375Y8500D01*
G01X7374Y8515D01*
G01X7371Y8529D01*
G01X7366Y8544D01*
G01X7360Y8558D01*
G01X7352Y8571D01*
G01X7343Y8582D01*
G01X7332Y8593D01*
G01X7321Y8602D01*
G01X7308Y8610D01*
G01X7294Y8616D01*
G01X7279Y8621D01*
G01X7265Y8624D01*
G01X7250Y8625D01*
G37*
G36*
G01X6750Y8625D02*
G01X6734Y8624D01*
G01X6720Y8621D01*
G01X6705Y8616D01*
G01X6691Y8610D01*
G01X6678Y8602D01*
G01X6667Y8593D01*
G01X6656Y8582D01*
G01X6647Y8571D01*
G01X6639Y8558D01*
G01X6633Y8544D01*
G01X6628Y8529D01*
G01X6625Y8515D01*
G01X6625Y8500D01*
G01X6625Y8484D01*
G01X6628Y8470D01*
G01X6633Y8455D01*
G01X6639Y8441D01*
G01X6647Y8428D01*
G01X6656Y8417D01*
G01X6667Y8406D01*
G01X6678Y8397D01*
G01X6691Y8389D01*
G01X6705Y8383D01*
G01X6720Y8378D01*
G01X6734Y8375D01*
G01X6750Y8375D01*
G01X6765Y8375D01*
G01X6779Y8378D01*
G01X6794Y8383D01*
G01X6808Y8389D01*
G01X6821Y8397D01*
G01X6832Y8406D01*
G01X6843Y8417D01*
G01X6852Y8428D01*
G01X6860Y8441D01*
G01X6866Y8455D01*
G01X6871Y8470D01*
G01X6874Y8484D01*
G01X6875Y8500D01*
G01X6874Y8515D01*
G01X6871Y8529D01*
G01X6866Y8544D01*
G01X6860Y8558D01*
G01X6852Y8571D01*
G01X6843Y8582D01*
G01X6832Y8593D01*
G01X6821Y8602D01*
G01X6808Y8610D01*
G01X6794Y8616D01*
G01X6779Y8621D01*
G01X6765Y8624D01*
G01X6750Y8625D01*
G37*
G36*
G01X1260Y169D02*
G01X2260Y169D01*
G01X2260Y869D01*
G01X1260Y869D01*
G01X1260Y169D01*
G37*
G36*
G01X1150Y2290D02*
G01X1339Y2302D01*
G01X1526Y2336D01*
G01X1708Y2393D01*
G01X1881Y2471D01*
G01X2044Y2569D01*
G01X2194Y2686D01*
G01X2328Y2821D01*
G01X2446Y2971D01*
G01X2544Y3133D01*
G01X2622Y3307D01*
G01X2678Y3488D01*
G01X2713Y3675D01*
G01X2724Y3865D01*
G01X2724Y5834D01*
G01X2713Y6024D01*
G01X2678Y6211D01*
G01X2622Y6392D01*
G01X2544Y6566D01*
G01X2446Y6728D01*
G01X2328Y6878D01*
G01X2194Y7013D01*
G01X2044Y7130D01*
G01X1881Y7228D01*
G01X1708Y7306D01*
G01X1526Y7363D01*
G01X1339Y7397D01*
G01X1150Y7409D01*
G01X960Y7397D01*
G01X773Y7363D01*
G01X591Y7306D01*
G01X418Y7228D01*
G01X255Y7130D01*
G01X105Y7013D01*
G01X-28Y6878D01*
G01X-146Y6728D01*
G01X-244Y6566D01*
G01X-322Y6392D01*
G01X-378Y6211D01*
G01X-413Y6024D01*
G01X-424Y5834D01*
G01X-424Y3865D01*
G01X-413Y3675D01*
G01X-378Y3488D01*
G01X-322Y3307D01*
G01X-244Y3133D01*
G01X-146Y2971D01*
G01X-28Y2821D01*
G01X105Y2686D01*
G01X255Y2569D01*
G01X418Y2471D01*
G01X591Y2393D01*
G01X773Y2336D01*
G01X960Y2302D01*
G01X1150Y2290D01*
G37*
G36*
G01X1260Y8830D02*
G01X2260Y8830D01*
G01X2260Y9530D01*
G01X1260Y9530D01*
G01X1260Y8830D01*
G37*
G36*
G01X39Y169D02*
G01X1039Y169D01*
G01X1039Y869D01*
G01X39Y869D01*
G01X39Y169D01*
G37*
G36*
G01X39Y8830D02*
G01X1039Y8830D01*
G01X1039Y9530D01*
G01X39Y9530D01*
G01X39Y8830D01*
G37*
M00*
M02*
